<?xml version="1.0" standalone="no"?>
<!DOCTYPE svg PUBLIC "-//W3C//DTD SVG 20010904//EN"
 "http://www.w3.org/TR/2001/REC-SVG-20010904/DTD/svg10.dtd">
<svg version="1.0" xmlns="http://www.w3.org/2000/svg"
 width="257.000000pt" height="255.000000pt" viewBox="0 0 257.000000 255.000000"
 preserveAspectRatio="xMidYMid meet">
<metadata>
Created by potrace 1.16, written by Peter Selinger 2001-2019
</metadata>
<g transform="translate(0.000000,255.000000) scale(0.100000,-0.100000)"
fill="#000000" stroke="none">
<path d="M505 2418 c-188 -36 -311 -180 -334 -393 -11 -98 -14 -1525 -4 -1525
5 0 8 -17 9 -38 1 -103 114 -246 231 -294 l58 -23 565 -1 c311 -1 571 1 578 4
9 3 12 59 12 233 l0 229 -535 0 -535 0 0 685 0 685 735 0 735 0 0 -685 0 -685
-160 0 -160 0 -2 -117 c0 -65 -1 -170 -2 -233 l0 -115 215 1 c196 0 219 2 271
23 118 46 195 133 222 251 15 64 16 168 18 1540 0 222 -40 314 -175 401 -107
69 -103 69 -944 68 -426 -1 -769 -5 -798 -11z"/>
<path d="M1746 1659 c-156 -44 -331 -152 -390 -239 -30 -45 -56 -120 -57 -168
-1 -20 -4 -50 -8 -67 -6 -25 -9 -19 -18 42 -22 143 -81 226 -217 306 -85 49
-205 101 -281 121 l-55 14 0 -364 0 -364 565 0 c531 0 565 1 566 18 1 9 3 176
4 370 l3 352 -22 -1 c-11 0 -52 -9 -90 -20z"/>
</g>
</svg>
