<?xml version="1.0" standalone="no"?>
<!DOCTYPE svg PUBLIC "-//W3C//DTD SVG 20010904//EN"
 "http://www.w3.org/TR/2001/REC-SVG-20010904/DTD/svg10.dtd">
<svg version="1.0" xmlns="http://www.w3.org/2000/svg"
 width="257.000000pt" height="250.000000pt" viewBox="0 0 257.000000 250.000000"
 preserveAspectRatio="xMidYMid meet">

<g transform="translate(0.000000,250.000000) scale(0.100000,-0.100000)"
fill="#000000" stroke="none">
<path d="M1104 1954 c-10 -40 2 -137 21 -175 10 -19 42 -62 72 -97 l53 -63 0
-194 c0 -107 -4 -196 -9 -199 -13 -9 -66 55 -139 169 -35 55 -74 111 -86 123
-33 37 -90 62 -174 77 -42 7 -89 16 -104 20 -17 4 -28 3 -28 -3 0 -5 30 -42
66 -81 56 -60 82 -79 161 -118 52 -25 93 -47 91 -48 -2 -2 -30 6 -63 17 -32
11 -79 20 -103 20 -61 0 -141 -12 -147 -22 -7 -12 73 -79 120 -101 47 -21 93
-24 192 -14 l73 8 59 -61 c32 -33 65 -78 72 -99 11 -29 14 -105 13 -313 -2
-429 -26 -615 -87 -666 -16 -14 -27 -27 -24 -31 3 -3 77 -2 164 2 l159 7 -32
32 c-60 60 -73 168 -74 617 l0 315 26 52 c14 28 48 72 76 97 l50 45 112 0 c86
0 120 5 151 19 47 21 133 96 123 106 -15 16 -173 17 -223 1 -27 -8 -51 -13
-53 -11 -2 2 24 18 58 34 84 41 116 67 173 140 56 70 56 70 -74 45 -138 -26
-190 -65 -252 -189 -23 -46 -59 -94 -104 -139 l-68 -68 -7 83 c-10 132 -9 261
3 302 5 21 31 61 56 89 25 28 52 68 60 87 16 36 23 185 10 197 -11 11 -88 -47
-117 -88 -20 -27 -31 -61 -41 -120 l-13 -83 -8 63 c-10 89 -25 129 -66 174
-34 38 -79 68 -101 68 -6 0 -14 -12 -17 -26z"/>
<path d="M2160 1391 c0 -5 5 -13 10 -16 6 -3 10 -2 10 4 0 5 -4 13 -10 16 -5
3 -10 2 -10 -4z"/>
<path d="M2161 1154 c0 -11 3 -14 6 -6 3 7 2 16 -1 19 -3 4 -6 -2 -5 -13z"/>
<path d="M2015 789 c-4 -6 -5 -12 -2 -15 2 -3 7 2 10 11 7 17 1 20 -8 4z"/>
<path d="M1955 720 c-3 -5 -1 -10 4 -10 6 0 11 5 11 10 0 6 -2 10 -4 10 -3 0
-8 -4 -11 -10z"/>
</g>
</svg>
